<svg width="214" height="40" viewBox="0 0 214 40" fill="none" xmlns="http://www.w3.org/2000/svg">
<path d="M0 10C0 4.47715 4.47715 0 10 0H30C35.5228 0 40 4.47715 40 10V30C40 35.5228 35.5228 40 30 40H10C4.47715 40 0 35.5228 0 30V10Z" fill="url(#paint0_linear_138_2083)"/>
<path d="M5.58563 21.6491C4.67161 20.5594 4.67165 18.9703 5.58563 17.8806C12.6611 9.53591 20.7938 10.4208 29.2145 17.2419C29.3007 17.3111 29.414 17.3381 29.5222 17.3151C29.6304 17.2921 29.7226 17.2207 29.7722 17.1218C30.6037 15.473 32.1671 14.3155 33.987 14.0026C34.4214 13.9263 34.8672 14.0469 35.2048 14.3308C35.5339 14.6085 35.7242 15.0173 35.7243 15.448L35.7243 24.0837C35.7245 24.5138 35.535 24.922 35.2067 25.1999C34.8702 25.4835 34.4253 25.604 33.9919 25.528C32.1716 25.2144 30.6074 24.0569 29.7751 22.4079C29.7247 22.3096 29.6322 22.2385 29.5241 22.2155C29.4162 22.1927 29.3034 22.2195 29.2175 22.2888C26.0949 25.0952 22.226 26.9367 18.0788 27.5905C17.9381 27.6043 17.8017 27.5361 17.7292 27.4147C17.6567 27.2935 17.6613 27.1415 17.7399 27.0241C18.725 25.5583 19.2502 23.8312 19.2487 22.0651C19.2481 20.3501 18.7452 18.6726 17.8024 17.2399C17.5872 16.9125 17.2132 16.7251 16.822 16.7478C16.4308 16.7705 16.0819 17.0002 15.9059 17.3503C15.73 17.7004 15.7534 18.1176 15.9684 18.445C17.857 21.3283 17.227 25.1773 14.5173 27.3073C14.4312 27.3745 14.3191 27.3993 14.2126 27.3757C10.7802 26.479 7.74426 24.4643 5.58563 21.6491ZM8.47919 19.9157C8.47919 20.7233 9.13454 21.3786 9.94208 21.3786C10.7494 21.3784 11.404 20.7231 11.404 19.9157C11.4039 19.1085 10.7493 18.4541 9.94208 18.4538C9.13461 18.4538 8.47931 19.1083 8.47919 19.9157Z" fill="black"/>
<path d="M191.653 12.8409V7.27273H213.776V12.8409H206.12V32.7273H199.309V12.8409H191.653Z" fill="white"/>
<path d="M169.951 32.7273V7.27273H188.296V12.8409H176.862V17.2159H187.352V22.7841H176.862V27.1591H188.247V32.7273H169.951Z" fill="white"/>
<path d="M166.057 7.27273V32.7273H160.29L151.093 19.3537H150.944V32.7273H144.033V7.27273H149.9L158.948 20.5966H159.147V7.27273H166.057Z" fill="white"/>
<path d="M120.439 32.7273V7.27273H131.427C133.316 7.27273 134.969 7.6456 136.386 8.39134C137.803 9.13707 138.905 10.1853 139.692 11.5359C140.479 12.8865 140.873 14.465 140.873 16.2713C140.873 18.0942 140.467 19.6727 139.655 21.0067C138.851 22.3408 137.72 23.3683 136.261 24.0891C134.811 24.81 133.117 25.1705 131.178 25.1705H124.616V19.8011H129.786C130.598 19.8011 131.29 19.6603 131.862 19.3786C132.442 19.0885 132.885 18.6784 133.192 18.1481C133.506 17.6178 133.664 16.9922 133.664 16.2713C133.664 15.5421 133.506 14.9207 133.192 14.407C132.885 13.8849 132.442 13.4872 131.862 13.2138C131.29 12.9321 130.598 12.7912 129.786 12.7912H127.35V32.7273H120.439Z" fill="white"/>
<path d="M98.042 32.7273V7.27273H116.387V12.8409H104.953V17.2159H115.443V22.7841H104.953V27.1591H116.337V32.7273H98.042Z" fill="white"/>
<path d="M75.6445 32.7273V7.27273H93.9896V12.8409H82.555V17.2159H93.045V22.7841H82.555V27.1591H93.9399V32.7273H75.6445Z" fill="white"/>
<path d="M50 32.7273V7.27273H56.9105V17.5639H57.2585L64.9148 7.27273H72.9688L64.3679 18.608L73.1676 32.7273H64.9148L59.1974 23.1818L56.9105 26.1648V32.7273H50Z" fill="white"/>
<defs>
<linearGradient id="paint0_linear_138_2083" x1="20" y1="0" x2="20" y2="40" gradientUnits="userSpaceOnUse">
<stop stop-color="#CCFF00"/>
<stop offset="1" stop-color="#A7D100"/>
</linearGradient>
</defs>
</svg>
